<?xml version="1.0" encoding="utf-8"?>
<!-- Generator: Adobe Illustrator 16.0.0, SVG Export Plug-In . SVG Version: 6.00 Build 0)  -->
<!DOCTYPE svg PUBLIC "-//W3C//DTD SVG 1.1//EN" "http://www.w3.org/Graphics/SVG/1.1/DTD/svg11.dtd">
<svg version="1.1" xmlns="http://www.w3.org/2000/svg" xmlns:xlink="http://www.w3.org/1999/xlink" x="0px" y="0px" width="600px"
	 height="100px" viewBox="0 0 600 100" enable-background="new 0 0 600 100" xml:space="preserve">
<g id="Layer_1">
	<radialGradient id="SVGID_1_" cx="131.6758" cy="34.3994" r="23.816" gradientUnits="userSpaceOnUse">
		<stop  offset="0" style="stop-color:#F2F2F2;stop-opacity:0.9"/>
		<stop  offset="0.8305" style="stop-color:#FCFCFC;stop-opacity:0.1526"/>
		<stop  offset="1" style="stop-color:#FFFFFF;stop-opacity:0"/>
	</radialGradient>
	<ellipse fill="url(#SVGID_1_)" cx="131.676" cy="34.4" rx="26.158" ry="21.216"/>
	<radialGradient id="SVGID_2_" cx="148.5332" cy="37.3062" r="23.816" gradientUnits="userSpaceOnUse">
		<stop  offset="0" style="stop-color:#F2F2F2;stop-opacity:0.9"/>
		<stop  offset="0.8305" style="stop-color:#FCFCFC;stop-opacity:0.1526"/>
		<stop  offset="1" style="stop-color:#FFFFFF;stop-opacity:0"/>
	</radialGradient>
	<ellipse fill="url(#SVGID_2_)" cx="148.533" cy="37.306" rx="26.158" ry="21.217"/>
	<radialGradient id="SVGID_3_" cx="129.311" cy="58.8135" r="26.4258" gradientUnits="userSpaceOnUse">
		<stop  offset="0" style="stop-color:#F2F2F2;stop-opacity:0.9"/>
		<stop  offset="0.8305" style="stop-color:#FCFCFC;stop-opacity:0.1526"/>
		<stop  offset="1" style="stop-color:#FFFFFF;stop-opacity:0"/>
	</radialGradient>
	<ellipse fill="url(#SVGID_3_)" cx="129.311" cy="58.812" rx="29.024" ry="23.543"/>
	<radialGradient id="SVGID_4_" cx="148.5332" cy="71.0205" r="23.8162" gradientUnits="userSpaceOnUse">
		<stop  offset="0" style="stop-color:#F2F2F2;stop-opacity:0.9"/>
		<stop  offset="0.8305" style="stop-color:#FCFCFC;stop-opacity:0.1526"/>
		<stop  offset="1" style="stop-color:#FFFFFF;stop-opacity:0"/>
	</radialGradient>
	<ellipse fill="url(#SVGID_4_)" cx="148.533" cy="71.021" rx="26.158" ry="21.217"/>
	<radialGradient id="SVGID_5_" cx="174.6914" cy="64.0459" r="23.816" gradientUnits="userSpaceOnUse">
		<stop  offset="0" style="stop-color:#F2F2F2;stop-opacity:0.9"/>
		<stop  offset="0.8305" style="stop-color:#FCFCFC;stop-opacity:0.1526"/>
		<stop  offset="1" style="stop-color:#FFFFFF;stop-opacity:0"/>
	</radialGradient>
	<ellipse fill="url(#SVGID_5_)" cx="174.691" cy="64.046" rx="26.158" ry="21.217"/>
	<radialGradient id="SVGID_6_" cx="165.9717" cy="36.0469" r="31.7553" gradientUnits="userSpaceOnUse">
		<stop  offset="0" style="stop-color:#F2F2F2;stop-opacity:0.9"/>
		<stop  offset="0.8305" style="stop-color:#FCFCFC;stop-opacity:0.1526"/>
		<stop  offset="1" style="stop-color:#FFFFFF;stop-opacity:0"/>
	</radialGradient>
	<ellipse fill="url(#SVGID_6_)" cx="165.972" cy="36.047" rx="34.878" ry="28.29"/>
	<radialGradient id="SVGID_7_" cx="220.4775" cy="24.7148" r="15.3342" gradientUnits="userSpaceOnUse">
		<stop  offset="0" style="stop-color:#F2F2F2;stop-opacity:0.9"/>
		<stop  offset="0.8305" style="stop-color:#FCFCFC;stop-opacity:0.1526"/>
		<stop  offset="1" style="stop-color:#FFFFFF;stop-opacity:0"/>
	</radialGradient>
	<path fill="url(#SVGID_7_)" d="M237.778,23.106c0,8.109-8.106,14.685-18.105,14.685s-16.496-3.356-16.496-11.466
		c0-8.11,8.105-14.685,18.105-14.685C231.281,11.64,237.778,14.996,237.778,23.106z"/>
	<radialGradient id="SVGID_8_" cx="229.0439" cy="18.6826" r="16.7553" gradientUnits="userSpaceOnUse">
		<stop  offset="0" style="stop-color:#F2F2F2;stop-opacity:0.9"/>
		<stop  offset="0.8305" style="stop-color:#FCFCFC;stop-opacity:0.1526"/>
		<stop  offset="1" style="stop-color:#FFFFFF;stop-opacity:0"/>
	</radialGradient>
	<path fill="url(#SVGID_8_)" d="M247.148,19.286c0,8.11-8.104,14.685-18.104,14.685c-10,0-18.104-6.575-18.104-14.685
		c0-8.11,8.104-15.892,18.104-15.892C239.044,3.394,247.148,11.176,247.148,19.286z"/>
	<radialGradient id="SVGID_9_" cx="227.4111" cy="38.3911" r="17.401" gradientUnits="userSpaceOnUse">
		<stop  offset="0" style="stop-color:#F2F2F2;stop-opacity:0.9"/>
		<stop  offset="0.8305" style="stop-color:#FCFCFC;stop-opacity:0.1526"/>
		<stop  offset="1" style="stop-color:#FFFFFF;stop-opacity:0"/>
	</radialGradient>
	<path fill="url(#SVGID_9_)" d="M246.695,39.8c0,8.998-7.384,13.879-18.479,13.879c-11.095,0-20.089-7.294-20.089-16.293
		c0-8.999,8.189-14.282,19.284-14.282c5.548,0,9.363,6.551,12.596,9.801C243.24,36.155,246.695,35.3,246.695,39.8z"/>
	<radialGradient id="SVGID_10_" cx="221.8857" cy="29.7437" r="17.1617" gradientUnits="userSpaceOnUse">
		<stop  offset="0" style="stop-color:#F2F2F2;stop-opacity:0.9"/>
		<stop  offset="0.8305" style="stop-color:#FCFCFC;stop-opacity:0.1526"/>
		<stop  offset="1" style="stop-color:#FFFFFF;stop-opacity:0"/>
	</radialGradient>
	<path fill="url(#SVGID_10_)" d="M242.203,28.335c0,8.11-9.714,14.685-19.714,14.685c-9.999,0-20.92-6.575-20.92-14.685
		c0-8.11,10.921-11.869,20.92-11.869C232.488,16.467,242.203,20.226,242.203,28.335z"/>
	<radialGradient id="SVGID_11_" cx="273.1748" cy="40.6045" r="16.2989" gradientUnits="userSpaceOnUse">
		<stop  offset="0" style="stop-color:#F2F2F2;stop-opacity:0.9"/>
		<stop  offset="0.8305" style="stop-color:#FCFCFC;stop-opacity:0.1526"/>
		<stop  offset="1" style="stop-color:#FFFFFF;stop-opacity:0"/>
	</radialGradient>
	<path fill="url(#SVGID_11_)" d="M289.871,41.812c0,8.11-8.106,14.685-18.105,14.685s-15.288-4.965-15.288-13.075
		c0-3.146,2.83-4.855,4.906-7.245c3.277-3.77,5.469-11.463,11.588-11.463C282.973,24.713,289.871,33.701,289.871,41.812z"/>
	
		<radialGradient id="SVGID_12_" cx="213.7129" cy="-80.7725" r="20.7549" gradientTransform="matrix(0.6766 -0.7363 0.7363 0.6766 180.0448 243.7257)" gradientUnits="userSpaceOnUse">
		<stop  offset="0" style="stop-color:#F2F2F2;stop-opacity:0.9"/>
		<stop  offset="0.8305" style="stop-color:#FCFCFC;stop-opacity:0.1526"/>
		<stop  offset="1" style="stop-color:#FFFFFF;stop-opacity:0"/>
	</radialGradient>
	<path fill="url(#SVGID_12_)" d="M283.276,15.838c4.976,4.573,3.89,10.399,2.136,17.508c-1.052,4.266-4.84,5.453-8.223,9.134
		c-9.021,9.818-21.9,12.659-29.861,5.345c-4.736-4.352-3.614-6.873-2.249-13.634c0.93-4.608,3.247-9.254,6.902-13.233
		C261.002,11.14,275.313,8.522,283.276,15.838z"/>
	<radialGradient id="SVGID_13_" cx="232.2959" cy="51.6816" r="13.1519" gradientUnits="userSpaceOnUse">
		<stop  offset="0" style="stop-color:#F2F2F2;stop-opacity:0.9"/>
		<stop  offset="0.8305" style="stop-color:#FCFCFC;stop-opacity:0.1526"/>
		<stop  offset="1" style="stop-color:#FFFFFF;stop-opacity:0"/>
	</radialGradient>
	<ellipse fill="url(#SVGID_13_)" cx="232.296" cy="51.681" rx="13.45" ry="12.848"/>
	<radialGradient id="SVGID_14_" cx="234.8843" cy="64.75" r="13.7453" gradientUnits="userSpaceOnUse">
		<stop  offset="0" style="stop-color:#F2F2F2;stop-opacity:0.9"/>
		<stop  offset="0.8305" style="stop-color:#FCFCFC;stop-opacity:0.1526"/>
		<stop  offset="1" style="stop-color:#FFFFFF;stop-opacity:0"/>
	</radialGradient>
	<path fill="url(#SVGID_14_)" d="M247.44,66.3c0-7.219-9.533-16.391-15.144-16.391c-5.611,0-9.968,9.396-9.968,16.613
		c0,7.216,4.547,13.067,10.158,13.067C238.098,79.59,247.44,73.517,247.44,66.3z"/>
	<radialGradient id="SVGID_15_" cx="244.835" cy="59.4336" r="14.5952" gradientUnits="userSpaceOnUse">
		<stop  offset="0" style="stop-color:#F2F2F2;stop-opacity:0.9"/>
		<stop  offset="0.8305" style="stop-color:#FCFCFC;stop-opacity:0.1526"/>
		<stop  offset="1" style="stop-color:#FFFFFF;stop-opacity:0"/>
	</radialGradient>
	<path fill="url(#SVGID_15_)" d="M229.626,55.669c0,7.705,11.171,17.72,18.018,17.72c6.848,0,12.399-6.248,12.399-13.956
		c0-7.705-5.551-13.953-12.399-13.953C240.797,45.479,229.626,47.961,229.626,55.669z"/>
	
		<radialGradient id="SVGID_16_" cx="332.0903" cy="63.8252" r="13.863" gradientTransform="matrix(0.8831 0.4691 -0.4691 0.8831 11.5935 -145.5419)" gradientUnits="userSpaceOnUse">
		<stop  offset="0" style="stop-color:#F2F2F2;stop-opacity:0.9"/>
		<stop  offset="0.8305" style="stop-color:#FCFCFC;stop-opacity:0.1526"/>
		<stop  offset="1" style="stop-color:#FFFFFF;stop-opacity:0"/>
	</radialGradient>
	<path fill="url(#SVGID_16_)" d="M286.343,75.422c-2.869,5.401-10.812,6.797-17.741,3.116c-6.93-3.681-10.221-11.043-7.352-16.445
		c2.87-5.399,13.099-11.1,20.028-7.419C288.206,58.354,289.212,70.02,286.343,75.422z"/>
	
		<radialGradient id="SVGID_17_" cx="344.0679" cy="74.9004" r="13.2422" gradientTransform="matrix(0.8831 0.4691 -0.4691 0.8831 11.5935 -145.5419)" gradientUnits="userSpaceOnUse">
		<stop  offset="0" style="stop-color:#F2F2F2;stop-opacity:0.9"/>
		<stop  offset="0.8305" style="stop-color:#FCFCFC;stop-opacity:0.1526"/>
		<stop  offset="1" style="stop-color:#FFFFFF;stop-opacity:0"/>
	</radialGradient>
	<path fill="url(#SVGID_17_)" d="M288.925,91.339c3.728-7.022,1.547-20.246-3.425-22.886c-4.971-2.641-12.025,0.911-15.755,7.934
		c-3.731,7.022-2.724,14.856,2.248,17.497C276.964,96.524,285.194,98.362,288.925,91.339z"/>
	
		<radialGradient id="SVGID_18_" cx="344.0674" cy="57.9551" r="14.6724" gradientTransform="matrix(0.8831 0.4691 -0.4691 0.8831 11.5935 -145.5419)" gradientUnits="userSpaceOnUse">
		<stop  offset="0" style="stop-color:#F2F2F2;stop-opacity:0.9"/>
		<stop  offset="0.8305" style="stop-color:#FCFCFC;stop-opacity:0.1526"/>
		<stop  offset="1" style="stop-color:#FFFFFF;stop-opacity:0"/>
	</radialGradient>
	<path fill="url(#SVGID_18_)" d="M277.693,61.423c-4.391,8.264-3.918,17.106,1.054,19.746c4.972,2.641,13.683,3.568,18.073-4.696
		s2.794-22.594-2.176-25.234C289.673,48.6,282.083,53.158,277.693,61.423z"/>
	
		<radialGradient id="SVGID_19_" cx="344.4014" cy="79.2939" r="6.1558" gradientTransform="matrix(0.9683 -0.2498 0.2498 0.9683 -7.6265 90.3798)" gradientUnits="userSpaceOnUse">
		<stop  offset="0" style="stop-color:#F2F2F2;stop-opacity:0.9"/>
		<stop  offset="0.8305" style="stop-color:#FCFCFC;stop-opacity:0.1526"/>
		<stop  offset="1" style="stop-color:#FFFFFF;stop-opacity:0"/>
	</radialGradient>
	<path opacity="0.8" fill="url(#SVGID_19_)" d="M352.681,79.317c0.666,2.578-1.936,5.481-5.812,6.481
		c-3.875,1-7.557-0.282-8.222-2.861c-0.666-2.581,1.936-5.482,5.811-6.482C348.334,75.455,352.015,76.735,352.681,79.317z"/>
	
		<radialGradient id="SVGID_20_" cx="342.7598" cy="84.1826" r="7.1731" gradientTransform="matrix(0.9683 -0.2498 0.2498 0.9683 -7.6265 90.3798)" gradientUnits="userSpaceOnUse">
		<stop  offset="0" style="stop-color:#F2F2F2;stop-opacity:0.9"/>
		<stop  offset="0.8305" style="stop-color:#FCFCFC;stop-opacity:0.1526"/>
		<stop  offset="1" style="stop-color:#FFFFFF;stop-opacity:0"/>
	</radialGradient>
	<path opacity="0.8" fill="url(#SVGID_20_)" d="M353.902,84.05c-0.675-2.613-5.074-3.738-9.826-2.513
		c-4.754,1.227-8.062,4.34-7.388,6.953c0.675,2.616,5.076,3.74,9.83,2.514C351.271,89.778,354.577,86.665,353.902,84.05z"/>
	
		<radialGradient id="SVGID_21_" cx="349.3633" cy="72.9443" r="8.3016" gradientTransform="matrix(0.9683 -0.2498 0.2498 0.9683 -7.6265 90.3798)" gradientUnits="userSpaceOnUse">
		<stop  offset="0" style="stop-color:#F2F2F2;stop-opacity:0.9"/>
		<stop  offset="0.8305" style="stop-color:#FCFCFC;stop-opacity:0.1526"/>
		<stop  offset="1" style="stop-color:#FFFFFF;stop-opacity:0"/>
	</radialGradient>
	<path opacity="0.8" fill="url(#SVGID_21_)" d="M356.015,71.9c1.261,4.889-0.91,9.676-4.848,10.691s-8.155-2.123-9.416-7.012
		c-1.262-4.89,0.911-9.678,4.848-10.693C350.537,63.871,354.753,67.011,356.015,71.9z"/>
	
		<radialGradient id="SVGID_22_" cx="354.043" cy="86.0869" r="8.3156" gradientTransform="matrix(0.9683 -0.2498 0.2498 0.9683 -7.6265 90.3798)" gradientUnits="userSpaceOnUse">
		<stop  offset="0" style="stop-color:#F2F2F2;stop-opacity:0.9"/>
		<stop  offset="0.8305" style="stop-color:#FCFCFC;stop-opacity:0.1526"/>
		<stop  offset="1" style="stop-color:#FFFFFF;stop-opacity:0"/>
	</radialGradient>
	<path opacity="0.8" fill="url(#SVGID_22_)" d="M350.655,86.855c-1.375-5.331,0.214-10.35,3.552-11.211s7.157,2.763,8.532,8.093
		c1.375,5.331-0.215,10.35-3.553,11.211C355.85,95.81,352.03,92.186,350.655,86.855z"/>
	
		<radialGradient id="SVGID_23_" cx="357.4883" cy="69.0078" r="8.3645" gradientTransform="matrix(0.9683 -0.2498 0.2498 0.9683 -7.6265 90.3798)" gradientUnits="userSpaceOnUse">
		<stop  offset="0" style="stop-color:#F2F2F2;stop-opacity:0.9"/>
		<stop  offset="0.8305" style="stop-color:#FCFCFC;stop-opacity:0.1526"/>
		<stop  offset="1" style="stop-color:#FFFFFF;stop-opacity:0"/>
	</radialGradient>
	<path opacity="0.8" fill="url(#SVGID_23_)" d="M350.111,69.358c1.42,5.5,5.103,9.306,8.228,8.499
		c3.122-0.806,4.504-5.917,3.085-11.418c-1.419-5.5-5.102-9.307-8.224-8.501C350.074,58.744,348.692,63.857,350.111,69.358z"/>
	
		<radialGradient id="SVGID_24_" cx="332.458" cy="38.9038" r="13.8887" gradientTransform="matrix(0.9726 0.2326 -0.2326 0.9726 10.3204 -74.0986)" gradientUnits="userSpaceOnUse">
		<stop  offset="0" style="stop-color:#F2F2F2;stop-opacity:0.9"/>
		<stop  offset="0.8305" style="stop-color:#FCFCFC;stop-opacity:0.1526"/>
		<stop  offset="1" style="stop-color:#FFFFFF;stop-opacity:0"/>
	</radialGradient>
	<path fill="url(#SVGID_24_)" d="M336.594,43.919c-1.965,8.219-8.92,13.598-15.536,12.016c-6.617-1.582-10.387-9.525-8.422-17.745
		c1.965-8.218,8.921-13.599,15.538-12.017C334.79,27.756,338.56,35.701,336.594,43.919z"/>
	
		<radialGradient id="SVGID_25_" cx="341.728" cy="33.0005" r="11.8533" gradientTransform="matrix(0.9726 0.2326 -0.2326 0.9726 10.3204 -74.0986)" gradientUnits="userSpaceOnUse">
		<stop  offset="0" style="stop-color:#F2F2F2;stop-opacity:0.9"/>
		<stop  offset="0.8305" style="stop-color:#FCFCFC;stop-opacity:0.1526"/>
		<stop  offset="1" style="stop-color:#FFFFFF;stop-opacity:0"/>
	</radialGradient>
	<path fill="url(#SVGID_25_)" d="M325.99,35.312c-1.794,7.502,0.787,14.55,5.767,15.741c4.979,1.19,10.469-3.928,12.263-11.43
		c1.794-7.501-0.788-14.549-5.766-15.739C333.273,22.694,327.784,27.811,325.99,35.312z"/>
	
		<radialGradient id="SVGID_26_" cx="326.8716" cy="23.2231" r="10.1649" gradientTransform="matrix(0.9726 0.2326 -0.2326 0.9726 10.3204 -74.0986)" gradientUnits="userSpaceOnUse">
		<stop  offset="0" style="stop-color:#F2F2F2;stop-opacity:0.9"/>
		<stop  offset="0.8305" style="stop-color:#FCFCFC;stop-opacity:0.1526"/>
		<stop  offset="1" style="stop-color:#FFFFFF;stop-opacity:0"/>
	</radialGradient>
	<path fill="url(#SVGID_26_)" d="M333.079,26.955c-1.256,5.252-6.864,8.412-12.524,7.058c-5.661-1.354-9.231-6.708-7.976-11.959
		c1.256-5.251,6.862-8.412,12.523-7.058C330.763,16.349,334.334,21.704,333.079,26.955z"/>
	
		<radialGradient id="SVGID_27_" cx="338.9346" cy="55.126" r="15.2098" gradientTransform="matrix(0.9726 0.2326 -0.2326 0.9726 10.3204 -74.0986)" gradientUnits="userSpaceOnUse">
		<stop  offset="0" style="stop-color:#F2F2F2;stop-opacity:0.9"/>
		<stop  offset="0.8305" style="stop-color:#FCFCFC;stop-opacity:0.1526"/>
		<stop  offset="1" style="stop-color:#FFFFFF;stop-opacity:0"/>
	</radialGradient>
	<path opacity="0.8" fill="url(#SVGID_27_)" d="M338.874,61.145c2.287-9.566-1.111-18.577-7.59-20.126s-13.587,4.949-15.875,14.515
		c-2.287,9.566,1.112,18.576,7.591,20.126S336.586,70.711,338.874,61.145z"/>
	
		<radialGradient id="SVGID_28_" cx="340.187" cy="5.8882" r="6.4376" gradientTransform="matrix(0.9726 0.2326 -0.2326 0.9726 10.3204 -74.0986)" gradientUnits="userSpaceOnUse">
		<stop  offset="0" style="stop-color:#F2F2F2;stop-opacity:0.9"/>
		<stop  offset="0.8305" style="stop-color:#FCFCFC;stop-opacity:0.1526"/>
		<stop  offset="1" style="stop-color:#FFFFFF;stop-opacity:0"/>
	</radialGradient>
	<path fill="url(#SVGID_28_)" d="M346.114,12.25c-0.821,3.435-4.31,5.543-7.792,4.711c-3.48-0.832-5.636-4.291-4.815-7.726
		c0.821-3.434,4.309-5.544,7.789-4.712C344.778,5.356,346.935,8.815,346.114,12.25z"/>
	
		<radialGradient id="SVGID_29_" cx="340.187" cy="15.48" r="8.1852" gradientTransform="matrix(0.9726 0.2326 -0.2326 0.9726 10.3204 -74.0986)" gradientUnits="userSpaceOnUse">
		<stop  offset="0" style="stop-color:#F2F2F2;stop-opacity:0.9"/>
		<stop  offset="0.8305" style="stop-color:#FCFCFC;stop-opacity:0.1526"/>
		<stop  offset="1" style="stop-color:#FFFFFF;stop-opacity:0"/>
	</radialGradient>
	<path fill="url(#SVGID_29_)" d="M343.883,21.578c1.232-5.151-0.592-10.003-4.074-10.836c-3.48-0.832-7.301,2.67-8.533,7.822
		c-1.232,5.151,0.591,10.003,4.071,10.835C338.83,30.231,342.652,26.729,343.883,21.578z"/>
	<radialGradient id="SVGID_30_" cx="365.4531" cy="11.7539" r="6.2468" gradientUnits="userSpaceOnUse">
		<stop  offset="0" style="stop-color:#F2F2F2;stop-opacity:0.9"/>
		<stop  offset="0.8305" style="stop-color:#FCFCFC;stop-opacity:0.1526"/>
		<stop  offset="1" style="stop-color:#FFFFFF;stop-opacity:0"/>
	</radialGradient>
	<ellipse opacity="0.9" fill="url(#SVGID_30_)" cx="365.453" cy="11.753" rx="6.896" ry="5.523"/>
	<radialGradient id="SVGID_31_" cx="370.3535" cy="18.0024" r="5.6158" gradientUnits="userSpaceOnUse">
		<stop  offset="0" style="stop-color:#F2F2F2;stop-opacity:0.9"/>
		<stop  offset="0.8305" style="stop-color:#FCFCFC;stop-opacity:0.1526"/>
		<stop  offset="1" style="stop-color:#FFFFFF;stop-opacity:0"/>
	</radialGradient>
	<ellipse opacity="0.9" fill="url(#SVGID_31_)" cx="370.354" cy="18.002" rx="4.901" ry="6.249"/>
	<radialGradient id="SVGID_32_" cx="363.3359" cy="32.8428" r="4.6269" gradientUnits="userSpaceOnUse">
		<stop  offset="0" style="stop-color:#F2F2F2;stop-opacity:0.9"/>
		<stop  offset="0.8305" style="stop-color:#FCFCFC;stop-opacity:0.1526"/>
		<stop  offset="1" style="stop-color:#FFFFFF;stop-opacity:0"/>
	</radialGradient>
	<ellipse fill="url(#SVGID_32_)" cx="363.335" cy="32.842" rx="4.291" ry="4.941"/>
	<radialGradient id="SVGID_33_" cx="355.3623" cy="38.5103" r="7.9827" gradientUnits="userSpaceOnUse">
		<stop  offset="0" style="stop-color:#F2F2F2;stop-opacity:0.9"/>
		<stop  offset="0.8305" style="stop-color:#FCFCFC;stop-opacity:0.1526"/>
		<stop  offset="1" style="stop-color:#FFFFFF;stop-opacity:0"/>
	</radialGradient>
	<ellipse fill="url(#SVGID_33_)" cx="355.362" cy="38.511" rx="7.973" ry="7.993"/>
	<radialGradient id="SVGID_34_" cx="366.3184" cy="39.6729" r="8.6922" gradientUnits="userSpaceOnUse">
		<stop  offset="0" style="stop-color:#F2F2F2;stop-opacity:0.9"/>
		<stop  offset="0.8305" style="stop-color:#FCFCFC;stop-opacity:0.1526"/>
		<stop  offset="1" style="stop-color:#FFFFFF;stop-opacity:0"/>
	</radialGradient>
	<ellipse fill="url(#SVGID_34_)" cx="366.318" cy="39.673" rx="8.204" ry="9.155"/>
	<radialGradient id="SVGID_35_" cx="376.293" cy="25.5596" r="5.6647" gradientUnits="userSpaceOnUse">
		<stop  offset="0" style="stop-color:#F2F2F2;stop-opacity:0.9"/>
		<stop  offset="0.8305" style="stop-color:#FCFCFC;stop-opacity:0.1526"/>
		<stop  offset="1" style="stop-color:#FFFFFF;stop-opacity:0"/>
	</radialGradient>
	<ellipse opacity="0.9" fill="url(#SVGID_35_)" cx="376.293" cy="25.559" rx="5.938" ry="5.376"/>
	<radialGradient id="SVGID_36_" cx="359.3359" cy="42.5063" r="9.81" gradientUnits="userSpaceOnUse">
		<stop  offset="0" style="stop-color:#F2F2F2;stop-opacity:0.9"/>
		<stop  offset="0.8305" style="stop-color:#FCFCFC;stop-opacity:0.1526"/>
		<stop  offset="1" style="stop-color:#FFFFFF;stop-opacity:0"/>
	</radialGradient>
	<ellipse fill="url(#SVGID_36_)" cx="359.335" cy="42.507" rx="6.982" ry="11.989"/>
	
		<radialGradient id="SVGID_37_" cx="338.3198" cy="13.8813" r="6.0102" gradientTransform="matrix(0.9726 0.2326 -0.2326 0.9726 10.3204 -74.0986)" gradientUnits="userSpaceOnUse">
		<stop  offset="0" style="stop-color:#F2F2F2;stop-opacity:0.9"/>
		<stop  offset="0.8305" style="stop-color:#FCFCFC;stop-opacity:0.1526"/>
		<stop  offset="1" style="stop-color:#FFFFFF;stop-opacity:0"/>
	</radialGradient>
	<path fill="url(#SVGID_37_)" d="M344.255,20.023c-0.205,0.858-4.008,0.686-8.492-0.387c-4.484-1.072-7.952-2.638-7.747-3.496
		c0.206-0.858,4.006-0.686,8.491,0.387C340.991,17.599,344.46,19.165,344.255,20.023z"/>
	
		<radialGradient id="SVGID_38_" cx="344.4736" cy="12.5737" r="6.4252" gradientTransform="matrix(0.9726 0.2326 -0.2326 0.9726 10.3204 -74.0986)" gradientUnits="userSpaceOnUse">
		<stop  offset="0" style="stop-color:#F2F2F2;stop-opacity:0.9"/>
		<stop  offset="0.8305" style="stop-color:#FCFCFC;stop-opacity:0.1526"/>
		<stop  offset="1" style="stop-color:#FFFFFF;stop-opacity:0"/>
	</radialGradient>
	<path fill="url(#SVGID_38_)" d="M336.44,16.809c-0.859,3.592,1.125,7.144,4.431,7.934c3.306,0.791,6.682-1.48,7.541-5.071
		c0.858-3.59-1.125-7.142-4.431-7.932C340.675,10.949,337.298,13.219,336.44,16.809z"/>
	<radialGradient id="SVGID_39_" cx="370.5254" cy="17.2764" r="10.6881" gradientUnits="userSpaceOnUse">
		<stop  offset="0" style="stop-color:#F2F2F2;stop-opacity:0.9"/>
		<stop  offset="0.8305" style="stop-color:#FCFCFC;stop-opacity:0.1526"/>
		<stop  offset="1" style="stop-color:#FFFFFF;stop-opacity:0"/>
	</radialGradient>
	<ellipse opacity="0.9" fill="url(#SVGID_39_)" cx="370.525" cy="17.276" rx="8.058" ry="12.789"/>
	<radialGradient id="SVGID_40_" cx="375.8379" cy="54.2471" r="6.6272" gradientUnits="userSpaceOnUse">
		<stop  offset="0" style="stop-color:#F2F2F2;stop-opacity:0.9"/>
		<stop  offset="0.8305" style="stop-color:#FCFCFC;stop-opacity:0.1526"/>
		<stop  offset="1" style="stop-color:#FFFFFF;stop-opacity:0"/>
	</radialGradient>
	<ellipse fill="url(#SVGID_40_)" cx="375.837" cy="54.247" rx="4.65" ry="8.138"/>
	<radialGradient id="SVGID_41_" cx="370.4453" cy="59.7695" r="8.1033" gradientUnits="userSpaceOnUse">
		<stop  offset="0" style="stop-color:#F2F2F2;stop-opacity:0.9"/>
		<stop  offset="0.8305" style="stop-color:#FCFCFC;stop-opacity:0.1526"/>
		<stop  offset="1" style="stop-color:#FFFFFF;stop-opacity:0"/>
	</radialGradient>
	<ellipse fill="url(#SVGID_41_)" cx="370.445" cy="59.77" rx="10.042" ry="5.522"/>
	<radialGradient id="SVGID_42_" cx="379.8262" cy="51.7764" r="8.7147" gradientUnits="userSpaceOnUse">
		<stop  offset="0" style="stop-color:#F2F2F2;stop-opacity:0.9"/>
		<stop  offset="0.8305" style="stop-color:#FCFCFC;stop-opacity:0.1526"/>
		<stop  offset="1" style="stop-color:#FFFFFF;stop-opacity:0"/>
	</radialGradient>
	<ellipse fill="url(#SVGID_42_)" cx="379.827" cy="51.776" rx="9.38" ry="7.993"/>
	<radialGradient id="SVGID_43_" cx="382.5215" cy="62.6035" r="8.9973" gradientUnits="userSpaceOnUse">
		<stop  offset="0" style="stop-color:#F2F2F2;stop-opacity:0.9"/>
		<stop  offset="0.8305" style="stop-color:#FCFCFC;stop-opacity:0.1526"/>
		<stop  offset="1" style="stop-color:#FFFFFF;stop-opacity:0"/>
	</radialGradient>
	<ellipse fill="url(#SVGID_43_)" cx="382.522" cy="62.604" rx="6.685" ry="10.828"/>
	<radialGradient id="SVGID_44_" cx="373.8584" cy="74.4053" r="6.4376" gradientUnits="userSpaceOnUse">
		<stop  offset="0" style="stop-color:#F2F2F2;stop-opacity:0.9"/>
		<stop  offset="0.8305" style="stop-color:#FCFCFC;stop-opacity:0.1526"/>
		<stop  offset="1" style="stop-color:#FFFFFF;stop-opacity:0"/>
	</radialGradient>
	<ellipse opacity="0.9" fill="url(#SVGID_44_)" cx="373.858" cy="74.404" rx="6.48" ry="6.396"/>
	<radialGradient id="SVGID_45_" cx="373.8584" cy="83.9961" r="8.1853" gradientUnits="userSpaceOnUse">
		<stop  offset="0" style="stop-color:#F2F2F2;stop-opacity:0.9"/>
		<stop  offset="0.8305" style="stop-color:#FCFCFC;stop-opacity:0.1526"/>
		<stop  offset="1" style="stop-color:#FFFFFF;stop-opacity:0"/>
	</radialGradient>
	<ellipse opacity="0.9" fill="url(#SVGID_45_)" cx="373.858" cy="83.997" rx="6.48" ry="9.593"/>
	<radialGradient id="SVGID_46_" cx="371.9902" cy="82.3984" r="6.0106" gradientUnits="userSpaceOnUse">
		<stop  offset="0" style="stop-color:#F2F2F2;stop-opacity:0.9"/>
		<stop  offset="0.8305" style="stop-color:#FCFCFC;stop-opacity:0.1526"/>
		<stop  offset="1" style="stop-color:#FFFFFF;stop-opacity:0"/>
	</radialGradient>
	<ellipse opacity="0.9" fill="url(#SVGID_46_)" cx="371.991" cy="82.397" rx="8.348" ry="1.6"/>
	<radialGradient id="SVGID_47_" cx="378.1465" cy="81.0898" r="6.4254" gradientUnits="userSpaceOnUse">
		<stop  offset="0" style="stop-color:#F2F2F2;stop-opacity:0.9"/>
		<stop  offset="0.8305" style="stop-color:#FCFCFC;stop-opacity:0.1526"/>
		<stop  offset="1" style="stop-color:#FFFFFF;stop-opacity:0"/>
	</radialGradient>
	<ellipse opacity="0.9" fill="url(#SVGID_47_)" cx="378.146" cy="81.089" rx="6.155" ry="6.687"/>
	<radialGradient id="SVGID_48_" cx="438.1602" cy="19.5166" r="6.0009" gradientUnits="userSpaceOnUse">
		<stop  offset="0" style="stop-color:#F2F2F2;stop-opacity:0.9"/>
		<stop  offset="0.8305" style="stop-color:#FCFCFC;stop-opacity:0.1526"/>
		<stop  offset="1" style="stop-color:#FFFFFF;stop-opacity:0"/>
	</radialGradient>
	<ellipse opacity="0.8" fill="url(#SVGID_48_)" cx="438.16" cy="19.517" rx="6.042" ry="5.96"/>
	<radialGradient id="SVGID_49_" cx="438.1602" cy="28.457" r="7.6297" gradientUnits="userSpaceOnUse">
		<stop  offset="0" style="stop-color:#F2F2F2;stop-opacity:0.9"/>
		<stop  offset="0.8305" style="stop-color:#FCFCFC;stop-opacity:0.1526"/>
		<stop  offset="1" style="stop-color:#FFFFFF;stop-opacity:0"/>
	</radialGradient>
	<ellipse opacity="0.8" fill="url(#SVGID_49_)" cx="438.16" cy="28.457" rx="6.042" ry="8.94"/>
	<radialGradient id="SVGID_50_" cx="462.3242" cy="21.5303" r="5.4966" gradientUnits="userSpaceOnUse">
		<stop  offset="0" style="stop-color:#F2F2F2;stop-opacity:0.9"/>
		<stop  offset="0.8305" style="stop-color:#FCFCFC;stop-opacity:0.1526"/>
		<stop  offset="1" style="stop-color:#FFFFFF;stop-opacity:0"/>
	</radialGradient>
	<ellipse opacity="0.8" fill="url(#SVGID_50_)" cx="462.325" cy="21.53" rx="6.068" ry="4.858"/>
	<radialGradient id="SVGID_51_" cx="466.6367" cy="27.0273" r="4.9404" gradientUnits="userSpaceOnUse">
		<stop  offset="0" style="stop-color:#F2F2F2;stop-opacity:0.9"/>
		<stop  offset="0.8305" style="stop-color:#FCFCFC;stop-opacity:0.1526"/>
		<stop  offset="1" style="stop-color:#FFFFFF;stop-opacity:0"/>
	</radialGradient>
	<ellipse opacity="0.8" fill="url(#SVGID_51_)" cx="466.637" cy="27.027" rx="4.312" ry="5.497"/>
	<radialGradient id="SVGID_52_" cx="461.876" cy="42.4443" r="4.1893" gradientUnits="userSpaceOnUse">
		<stop  offset="0" style="stop-color:#F2F2F2;stop-opacity:0.9"/>
		<stop  offset="0.8305" style="stop-color:#FCFCFC;stop-opacity:0.1526"/>
		<stop  offset="1" style="stop-color:#FFFFFF;stop-opacity:0"/>
	</radialGradient>
	<ellipse fill="url(#SVGID_52_)" cx="461.876" cy="42.444" rx="3.885" ry="4.474"/>
	<radialGradient id="SVGID_53_" cx="454.6582" cy="47.5742" r="7.2271" gradientUnits="userSpaceOnUse">
		<stop  offset="0" style="stop-color:#F2F2F2;stop-opacity:0.9"/>
		<stop  offset="0.8305" style="stop-color:#FCFCFC;stop-opacity:0.1526"/>
		<stop  offset="1" style="stop-color:#FFFFFF;stop-opacity:0"/>
	</radialGradient>
	<ellipse fill="url(#SVGID_53_)" cx="454.658" cy="47.575" rx="7.218" ry="7.236"/>
	<radialGradient id="SVGID_54_" cx="464.5762" cy="48.627" r="7.8702" gradientUnits="userSpaceOnUse">
		<stop  offset="0" style="stop-color:#F2F2F2;stop-opacity:0.9"/>
		<stop  offset="0.8305" style="stop-color:#FCFCFC;stop-opacity:0.1526"/>
		<stop  offset="1" style="stop-color:#FFFFFF;stop-opacity:0"/>
	</radialGradient>
	<ellipse fill="url(#SVGID_54_)" cx="464.576" cy="48.628" rx="7.428" ry="8.288"/>
	<radialGradient id="SVGID_55_" cx="471.8613" cy="33.6758" r="4.9834" gradientUnits="userSpaceOnUse">
		<stop  offset="0" style="stop-color:#F2F2F2;stop-opacity:0.9"/>
		<stop  offset="0.8305" style="stop-color:#FCFCFC;stop-opacity:0.1526"/>
		<stop  offset="1" style="stop-color:#FFFFFF;stop-opacity:0"/>
	</radialGradient>
	<ellipse opacity="0.9" fill="url(#SVGID_55_)" cx="471.861" cy="33.675" rx="5.225" ry="4.73"/>
	<radialGradient id="SVGID_56_" cx="471.6758" cy="66.8965" r="5.9777" gradientUnits="userSpaceOnUse">
		<stop  offset="0" style="stop-color:#F2F2F2;stop-opacity:0.9"/>
		<stop  offset="0.8305" style="stop-color:#FCFCFC;stop-opacity:0.1526"/>
		<stop  offset="1" style="stop-color:#FFFFFF;stop-opacity:0"/>
	</radialGradient>
	<ellipse opacity="0.9" fill="url(#SVGID_56_)" cx="471.676" cy="66.896" rx="4.194" ry="7.34"/>
	<radialGradient id="SVGID_57_" cx="466.8125" cy="71.8779" r="7.3094" gradientUnits="userSpaceOnUse">
		<stop  offset="0" style="stop-color:#F2F2F2;stop-opacity:0.9"/>
		<stop  offset="0.8305" style="stop-color:#FCFCFC;stop-opacity:0.1526"/>
		<stop  offset="1" style="stop-color:#FFFFFF;stop-opacity:0"/>
	</radialGradient>
	<path opacity="0.9" fill="url(#SVGID_57_)" d="M475.87,71.876c0-2.75-4.056-4.979-9.057-4.979c-5.003,0-9.059,2.229-9.059,4.979
		c0,2.753,4.056,4.983,9.059,4.983C471.814,76.859,475.87,74.629,475.87,71.876z"/>
	<radialGradient id="SVGID_58_" cx="475.2734" cy="64.668" r="7.8595" gradientUnits="userSpaceOnUse">
		<stop  offset="0" style="stop-color:#F2F2F2;stop-opacity:0.9"/>
		<stop  offset="0.8305" style="stop-color:#FCFCFC;stop-opacity:0.1526"/>
		<stop  offset="1" style="stop-color:#FFFFFF;stop-opacity:0"/>
	</radialGradient>
	<ellipse opacity="0.9" fill="url(#SVGID_58_)" cx="475.274" cy="64.668" rx="8.46" ry="7.208"/>
	<radialGradient id="SVGID_59_" cx="477.7051" cy="74.4336" r="8.1148" gradientUnits="userSpaceOnUse">
		<stop  offset="0" style="stop-color:#F2F2F2;stop-opacity:0.9"/>
		<stop  offset="0.8305" style="stop-color:#FCFCFC;stop-opacity:0.1526"/>
		<stop  offset="1" style="stop-color:#FFFFFF;stop-opacity:0"/>
	</radialGradient>
	<ellipse opacity="0.9" fill="url(#SVGID_59_)" cx="477.705" cy="74.434" rx="6.03" ry="9.766"/>
	<radialGradient id="SVGID_60_" cx="458.2559" cy="51.1934" r="8.882" gradientUnits="userSpaceOnUse">
		<stop  offset="0" style="stop-color:#F2F2F2;stop-opacity:0.9"/>
		<stop  offset="0.8305" style="stop-color:#FCFCFC;stop-opacity:0.1526"/>
		<stop  offset="1" style="stop-color:#FFFFFF;stop-opacity:0"/>
	</radialGradient>
	<ellipse opacity="0.8" fill="url(#SVGID_60_)" cx="458.255" cy="51.193" rx="6.322" ry="10.855"/>
	<radialGradient id="SVGID_61_" cx="436.4199" cy="26.9668" r="5.6022" gradientUnits="userSpaceOnUse">
		<stop  offset="0" style="stop-color:#F2F2F2;stop-opacity:0.9"/>
		<stop  offset="0.8305" style="stop-color:#FCFCFC;stop-opacity:0.1526"/>
		<stop  offset="1" style="stop-color:#FFFFFF;stop-opacity:0"/>
	</radialGradient>
	<ellipse opacity="0.8" fill="url(#SVGID_61_)" cx="436.419" cy="26.968" rx="7.782" ry="1.489"/>
	<radialGradient id="SVGID_62_" cx="442.1562" cy="25.748" r="5.9888" gradientUnits="userSpaceOnUse">
		<stop  offset="0" style="stop-color:#F2F2F2;stop-opacity:0.9"/>
		<stop  offset="0.8305" style="stop-color:#FCFCFC;stop-opacity:0.1526"/>
		<stop  offset="1" style="stop-color:#FFFFFF;stop-opacity:0"/>
	</radialGradient>
	<ellipse opacity="0.8" fill="url(#SVGID_62_)" cx="442.156" cy="25.748" rx="5.737" ry="6.231"/>
	<radialGradient id="SVGID_63_" cx="466.7871" cy="26.3887" r="9.4028" gradientUnits="userSpaceOnUse">
		<stop  offset="0" style="stop-color:#F2F2F2;stop-opacity:0.9"/>
		<stop  offset="0.8305" style="stop-color:#FCFCFC;stop-opacity:0.1526"/>
		<stop  offset="1" style="stop-color:#FFFFFF;stop-opacity:0"/>
	</radialGradient>
	<ellipse opacity="0.8" fill="url(#SVGID_63_)" cx="466.787" cy="26.388" rx="7.089" ry="11.251"/>
	
		<radialGradient id="SVGID_64_" cx="421.6211" cy="54.7793" r="7.4385" gradientTransform="matrix(0.9881 0.1539 -0.1539 0.9881 15.3463 -65.2377)" gradientUnits="userSpaceOnUse">
		<stop  offset="0" style="stop-color:#F2F2F2;stop-opacity:0.9"/>
		<stop  offset="0.8305" style="stop-color:#FCFCFC;stop-opacity:0.1526"/>
		<stop  offset="1" style="stop-color:#FFFFFF;stop-opacity:0"/>
	</radialGradient>
	<path fill="url(#SVGID_64_)" d="M432.26,55.155c-0.482,3.098-4.791,4.999-9.625,4.246c-4.833-0.753-8.36-3.875-7.878-6.973
		c0.483-3.1,4.793-5.001,9.626-4.247C429.217,48.935,432.743,52.057,432.26,55.155z"/>
	
		<radialGradient id="SVGID_65_" cx="431.9561" cy="56.5957" r="10.7083" gradientTransform="matrix(0.9881 0.1539 -0.1539 0.9881 15.3463 -65.2377)" gradientUnits="userSpaceOnUse">
		<stop  offset="0" style="stop-color:#F2F2F2;stop-opacity:0.9"/>
		<stop  offset="0.8305" style="stop-color:#FCFCFC;stop-opacity:0.1526"/>
		<stop  offset="1" style="stop-color:#FFFFFF;stop-opacity:0"/>
	</radialGradient>
	<path fill="url(#SVGID_65_)" d="M441.205,58.388c1.101-7.066-1.482-13.334-5.771-14.002s-8.657,4.517-9.758,11.582
		c-1.101,7.064,1.483,13.333,5.772,14.001C435.736,70.637,440.104,65.451,441.205,58.388z"/>
	
		<radialGradient id="SVGID_66_" cx="425.0195" cy="49.5542" r="10.1496" gradientTransform="matrix(0.9881 0.1539 -0.1539 0.9881 15.3463 -65.2377)" gradientUnits="userSpaceOnUse">
		<stop  offset="0" style="stop-color:#F2F2F2;stop-opacity:0.9"/>
		<stop  offset="0.8305" style="stop-color:#FCFCFC;stop-opacity:0.1526"/>
		<stop  offset="1" style="stop-color:#FFFFFF;stop-opacity:0"/>
	</radialGradient>
	<path opacity="0.8" fill="url(#SVGID_66_)" d="M436.896,50.59c-0.927,5.949-5.807,10.129-10.902,9.335s-8.476-6.261-7.549-12.209
		c0.927-5.949,5.81-10.129,10.905-9.335S437.823,44.642,436.896,50.59z"/>
	
		<radialGradient id="SVGID_67_" cx="437.5986" cy="66.249" r="9.1849" gradientTransform="matrix(0.9881 0.1539 -0.1539 0.9881 15.3463 -65.2377)" gradientUnits="userSpaceOnUse">
		<stop  offset="0" style="stop-color:#F2F2F2;stop-opacity:0.9"/>
		<stop  offset="0.8305" style="stop-color:#FCFCFC;stop-opacity:0.1526"/>
		<stop  offset="1" style="stop-color:#FFFFFF;stop-opacity:0"/>
	</radialGradient>
	<path fill="url(#SVGID_67_)" d="M446.119,68.922c0.82-5.267-2.359-10.137-7.103-10.875c-4.745-0.739-9.254,2.933-10.075,8.199
		c-0.82,5.268,2.358,10.137,7.104,10.876C440.788,77.861,445.299,74.19,446.119,68.922z"/>
	<radialGradient id="SVGID_68_" cx="560.1895" cy="51.6895" r="4.561" gradientUnits="userSpaceOnUse">
		<stop  offset="0" style="stop-color:#F2F2F2;stop-opacity:0.9"/>
		<stop  offset="0.8305" style="stop-color:#FCFCFC;stop-opacity:0.1526"/>
		<stop  offset="1" style="stop-color:#FFFFFF;stop-opacity:0"/>
	</radialGradient>
	<ellipse opacity="0.5" fill="url(#SVGID_68_)" cx="560.189" cy="51.689" rx="4.556" ry="4.566"/>
	<radialGradient id="SVGID_69_" cx="566.4492" cy="55.0098" r="4.9659" gradientUnits="userSpaceOnUse">
		<stop  offset="0" style="stop-color:#F2F2F2;stop-opacity:0.9"/>
		<stop  offset="0.8305" style="stop-color:#FCFCFC;stop-opacity:0.1526"/>
		<stop  offset="1" style="stop-color:#FFFFFF;stop-opacity:0"/>
	</radialGradient>
	<ellipse opacity="0.5" fill="url(#SVGID_69_)" cx="566.449" cy="55.01" rx="4.687" ry="5.23"/>
	<radialGradient id="SVGID_70_" cx="562.46" cy="57.625" r="5.6046" gradientUnits="userSpaceOnUse">
		<stop  offset="0" style="stop-color:#F2F2F2;stop-opacity:0.9"/>
		<stop  offset="0.8305" style="stop-color:#FCFCFC;stop-opacity:0.1526"/>
		<stop  offset="1" style="stop-color:#FFFFFF;stop-opacity:0"/>
	</radialGradient>
	<ellipse opacity="0.5" fill="url(#SVGID_70_)" cx="562.46" cy="57.626" rx="3.988" ry="6.85"/>
	
		<radialGradient id="SVGID_71_" cx="537.6504" cy="36.959" r="8.1115" gradientTransform="matrix(0.9615 0.275 -0.275 0.9615 31.3864 -147.2077)" gradientUnits="userSpaceOnUse">
		<stop  offset="0" style="stop-color:#F2F2F2;stop-opacity:0.9"/>
		<stop  offset="0.8305" style="stop-color:#FCFCFC;stop-opacity:0.1526"/>
		<stop  offset="1" style="stop-color:#FFFFFF;stop-opacity:0"/>
	</radialGradient>
	<path opacity="0.4" fill="url(#SVGID_71_)" d="M529.858,33.791c-1.149,4.018,1.631,8.336,6.21,9.646
		c4.578,1.31,9.223-0.886,10.371-4.903s-1.632-8.336-6.21-9.645C535.65,27.578,531.007,29.773,529.858,33.791z"/>
	
		<radialGradient id="SVGID_72_" cx="536.3486" cy="45.6631" r="6.5585" gradientTransform="matrix(0.9615 0.275 -0.275 0.9615 31.3864 -147.2077)" gradientUnits="userSpaceOnUse">
		<stop  offset="0" style="stop-color:#F2F2F2;stop-opacity:0.9"/>
		<stop  offset="0.8305" style="stop-color:#FCFCFC;stop-opacity:0.1526"/>
		<stop  offset="1" style="stop-color:#FFFFFF;stop-opacity:0"/>
	</radialGradient>
	<path opacity="0.4" fill="url(#SVGID_72_)" d="M541.544,46.187c0.864-3.024-1.586-6.377-5.474-7.489
		c-3.889-1.112-7.74,0.438-8.605,3.462s1.585,6.376,5.474,7.488C536.826,50.76,540.679,49.21,541.544,46.187z"/>
	
		<radialGradient id="SVGID_73_" cx="545.0527" cy="38.9922" r="6.5343" gradientTransform="matrix(0.9615 0.275 -0.275 0.9615 31.3864 -147.2077)" gradientUnits="userSpaceOnUse">
		<stop  offset="0" style="stop-color:#F2F2F2;stop-opacity:0.9"/>
		<stop  offset="0.8305" style="stop-color:#FCFCFC;stop-opacity:0.1526"/>
		<stop  offset="1" style="stop-color:#FFFFFF;stop-opacity:0"/>
	</radialGradient>
	<path opacity="0.4" fill="url(#SVGID_73_)" d="M537.59,38.118c-0.84,2.937,1.665,6.23,5.597,7.354
		c3.931,1.125,7.798-0.346,8.638-3.283c0.841-2.938-1.664-6.23-5.596-7.354C542.297,33.71,538.43,35.18,537.59,38.118z"/>
	
		<radialGradient id="SVGID_74_" cx="543.1709" cy="30.0986" r="5.8871" gradientTransform="matrix(0.9615 0.275 -0.275 0.9615 31.3864 -147.2077)" gradientUnits="userSpaceOnUse">
		<stop  offset="0" style="stop-color:#F2F2F2;stop-opacity:0.9"/>
		<stop  offset="0.8305" style="stop-color:#FCFCFC;stop-opacity:0.1526"/>
		<stop  offset="1" style="stop-color:#FFFFFF;stop-opacity:0"/>
	</radialGradient>
	<path opacity="0.4" fill="url(#SVGID_74_)" d="M551.902,32.96c-0.726,2.534-4.25,3.749-7.872,2.713
		c-3.622-1.036-5.971-3.931-5.246-6.465c0.726-2.535,4.249-3.75,7.871-2.714C550.277,27.531,552.627,30.425,551.902,32.96z"/>
	<radialGradient id="SVGID_75_" cx="541.3906" cy="61.4326" r="5.1973" gradientUnits="userSpaceOnUse">
		<stop  offset="0" style="stop-color:#F2F2F2;stop-opacity:0.9"/>
		<stop  offset="0.8305" style="stop-color:#FCFCFC;stop-opacity:0.1526"/>
		<stop  offset="1" style="stop-color:#FFFFFF;stop-opacity:0"/>
	</radialGradient>
	<ellipse opacity="0.5" fill="url(#SVGID_75_)" cx="541.391" cy="61.432" rx="3.646" ry="6.383"/>
	<radialGradient id="SVGID_76_" cx="537.1621" cy="65.7617" r="6.3551" gradientUnits="userSpaceOnUse">
		<stop  offset="0" style="stop-color:#F2F2F2;stop-opacity:0.9"/>
		<stop  offset="0.8305" style="stop-color:#FCFCFC;stop-opacity:0.1526"/>
		<stop  offset="1" style="stop-color:#FFFFFF;stop-opacity:0"/>
	</radialGradient>
	<ellipse opacity="0.5" fill="url(#SVGID_76_)" cx="537.163" cy="65.763" rx="7.875" ry="4.331"/>
	<radialGradient id="SVGID_77_" cx="544.5176" cy="59.4951" r="6.8343" gradientUnits="userSpaceOnUse">
		<stop  offset="0" style="stop-color:#F2F2F2;stop-opacity:0.9"/>
		<stop  offset="0.8305" style="stop-color:#FCFCFC;stop-opacity:0.1526"/>
		<stop  offset="1" style="stop-color:#FFFFFF;stop-opacity:0"/>
	</radialGradient>
	<ellipse opacity="0.5" fill="url(#SVGID_77_)" cx="544.518" cy="59.494" rx="7.357" ry="6.269"/>
	<radialGradient id="SVGID_78_" cx="546.6328" cy="67.9844" r="7.0557" gradientUnits="userSpaceOnUse">
		<stop  offset="0" style="stop-color:#F2F2F2;stop-opacity:0.9"/>
		<stop  offset="0.8305" style="stop-color:#FCFCFC;stop-opacity:0.1526"/>
		<stop  offset="1" style="stop-color:#FFFFFF;stop-opacity:0"/>
	</radialGradient>
	<ellipse opacity="0.5" fill="url(#SVGID_78_)" cx="546.633" cy="67.984" rx="5.242" ry="8.49"/>
</g>
</svg>
